<svg viewBox="0 0 200 200" xmlns="http://www.w3.org/2000/svg">
  <!-- Background Circle -->
  <circle cx="100" cy="100" r="90" fill="#2c3e50"/>
  
  <!-- Main "B" Shape -->
  <path d="M70 40 L70 160 L110 160 C130 160 145 145 145 125 C145 110 135 97 120 95 C132 93 140 80 140 65 C140 50 125 40 110 40 Z" fill="#3498db"/>
  
  <!-- Inner "B" Shape -->
  <path d="M85 55 L85 95 L105 95 C115 95 125 90 125 75 C125 60 115 55 105 55 Z" fill="#2c3e50"/>
  <path d="M85 105 L85 145 L105 145 C118 145 128 140 128 125 C128 110 118 105 105 105 Z" fill="#2c3e50"/>
  
  <!-- Binary Code Lines -->
  <text x="150" y="60" font-family="monospace" font-size="12" fill="#2ecc71">01</text>
  <text x="150" y="80" font-family="monospace" font-size="12" fill="#2ecc71">10</text>
  <text x="150" y="100" font-family="monospace" font-size="12" fill="#2ecc71">01</text>
  <text x="150" y="120" font-family="monospace" font-size="12" fill="#2ecc71">10</text>
  <text x="150" y="140" font-family="monospace" font-size="12" fill="#2ecc71">01</text>
  
  <!-- Gear Icon (Symbolizing Build Tool) -->
  <g transform="translate(30, 70) scale(0.4)">
    <circle cx="50" cy="50" r="20" fill="#ecf0f1"/>
    <path d="M50 25 L53 35 L65 30 L70 40 L60 50 L70 60 L65 70 L53 65 L50 75 L47 65 L35 70 L30 60 L40 50 L30 40 L35 30 L47 35 Z" fill="#f39c12"/>
    <circle cx="50" cy="50" r="10" fill="#ecf0f1"/>
  </g>
</svg>
